# xmcd CD database file
#
# Track frame offsets:
#	183
#	31648
#	57845
#	77513
#	99310
#	131123
#	151140
#	169250
#
# Disc length: 2622 seconds
#
# Revision: 1
# Processed by: cddbd v1.5.1PL0 Copyright (c) Steve Scherf et al.
# Submitted via: CDex 1.51
#
DISCID=540a3c08
DTITLE=Steve Grossmann - Way Out East
DYEAR=1984
DGENRE=Jazz
TTITLE0=1- Bye Bye Blackbird
TTITLE1=2 - On Green Dolphin St
TTITLE2=3 - I'll Remember April
TTITLE3=4 -Taurus People
TTITLE4=5 - Star Eyes
TTITLE5=6- There Will Never Be Another You
TTITLE6=7 - ThisTime the Dream's on me
TTITLE7=8 - Four
EXTD=YEAR: 1984
EXTT0=
EXTT1=
EXTT2=
EXTT3=
EXTT4=
EXTT5=
EXTT6=
EXTT7=
PLAYORDER=
